<svg xmlns="http://www.w3.org/2000/svg" version="1.1" xmlns:xlink="http://www.w3.org/1999/xlink" xmlns:svgjs="http://svgjs.dev/svgjs" width="2000" height="1500" viewBox="0 0 2000 1500"><rect width="2000" height="1500" fill="#000008"></rect><g transform="matrix(0.75,0,0,0.75,249.090909090909,486.1274183158737)"><svg viewBox="0 0 396 139" data-background-color="#000008" preserveAspectRatio="xMidYMid meet" height="702" width="2000" xmlns="http://www.w3.org/2000/svg" xmlns:xlink="http://www.w3.org/1999/xlink"><g id="tight-bounds" transform="matrix(1,0,0,1,0.2400000000000091,0.16436629457464846)"><svg viewBox="0 0 395.52 138.67126741085067" height="138.67126741085067" width="395.52"><g><svg viewBox="0 0 697.1703173431529 244.43135999999998" height="138.67126741085067" width="395.52"><g transform="matrix(1,0,0,1,301.6503173431529,1.0281019676017422)"><svg viewBox="0 0 395.52 242.3751560647965" height="242.3751560647965" width="395.52"><g id="textblocktransform"><svg viewBox="0 0 395.52 242.3751560647965" height="242.3751560647965" width="395.52" id="textblock"><g><svg viewBox="0 0 395.52 242.3751560647965" height="242.3751560647965" width="395.52"><g transform="matrix(1,0,0,1,0,0)"><svg width="395.52" viewBox="3.32 -36.18 61.79 37.86" height="242.3751560647965" data-palette-color="#ffffff"><path d="M34.2-25.37L34.2-25.37Q34.18-23.27 33.8-21.61 33.42-19.95 32.73-18.62 32.03-17.29 31.04-16.22 30.05-15.16 28.78-14.23L28.78-14.23Q26.34-12.48 23.44-11.58 20.53-10.69 17.6-10.69L17.6-10.69Q17.11-10.69 16.64-10.72 16.16-10.74 15.67-10.79L15.67-10.79 14.87-1.88 14.45-1.12Q14.4-1.03 13.62-0.73 12.84-0.44 11.67-0.05L11.67-0.05 10.13 0.46Q9.4 0.73 8.84 0.95 8.28 1.17 7.79 1.34 7.3 1.51 6.84 1.6 6.37 1.68 5.86 1.68L5.86 1.68Q5.52 1.68 5.32 1.51 5.13 1.34 5.13 0.85L5.13 0.85 5.4-3.32Q5.47-4.57 5.58-5.82 5.69-7.08 5.79-8.69L5.79-8.69 6.25-14.53Q6.4-16.31 6.52-18.09 6.64-19.87 6.76-21.48 6.88-23.1 6.98-24.5 7.08-25.9 7.15-26.95L7.15-26.95Q5.83-26.66 5.04-26.53 4.25-26.39 3.83-26.39L3.83-26.39Q3.32-26.39 3.32-26.83L3.32-26.83Q3.66-28.03 3.96-29.17L3.96-29.17Q4.22-30.15 4.5-31.19 4.79-32.23 4.98-32.93L4.98-32.93Q5.1-33.37 5.26-33.61 5.42-33.84 5.68-33.97 5.93-34.11 6.34-34.22 6.74-34.33 7.32-34.52L7.32-34.52Q7.79-34.67 8.63-34.85 9.47-35.03 10.56-35.22 11.65-35.4 12.92-35.57 14.18-35.74 15.49-35.88 16.8-36.01 18.07-36.1 19.34-36.18 20.46-36.18L20.46-36.18Q23.24-36.18 25.73-35.67 28.22-35.16 30.1-33.92 31.98-32.69 33.09-30.6 34.2-28.52 34.2-25.37ZM16.36-18.04L16.36-18.04Q16.36-17.77 16.46-17.57 16.55-17.36 16.99-17.36L16.99-17.36Q17.68-17.36 18.62-17.66 19.56-17.97 20.5-18.58 21.44-19.19 22.24-20.09 23.05-21 23.46-22.22L23.46-22.22Q23.63-22.71 23.74-23.46 23.85-24.22 23.85-25.24L23.85-25.24Q23.85-26.95 22.67-27.76 21.48-28.56 19.58-28.56L19.58-28.56Q19.26-28.56 18.86-28.53 18.46-28.49 18.1-28.39 17.75-28.3 17.5-28.16 17.26-28.03 17.24-27.81L17.24-27.81 17.19-27.27Q17.16-26.95 17.09-26.23 17.02-25.51 16.93-24.58 16.85-23.66 16.76-22.63 16.67-21.61 16.59-20.68 16.5-19.75 16.44-19.04 16.38-18.33 16.36-18.04ZM35.84-16.5L35.84-16.5Q35.84-19.19 36.48-21.67 37.13-24.15 38.33-26.29 39.52-28.44 41.22-30.2 42.92-31.96 45.02-33.22 47.12-34.47 49.57-35.16 52.02-35.84 54.73-35.84L54.73-35.84Q56.88-35.84 58.51-35.56 60.13-35.28 61.34-34.85 62.55-34.42 63.36-33.91 64.18-33.4 64.72-32.93L64.72-32.93Q64.69-32.93 64.69-32.76L64.69-32.76Q64.69-32.4 64.76-31.42 64.82-30.44 64.9-29.25 64.99-28.05 65.05-26.82 65.11-25.59 65.11-24.68L65.11-24.68Q65.11-24.54 65.01-24.35 64.91-24.17 64.52-24.17L64.52-24.17Q64.3-24.17 63.99-24.24L63.99-24.24Q63.47-24.39 62.69-24.91 61.91-25.44 60.87-26.01 59.84-26.59 58.55-27.04 57.27-27.49 55.76-27.49L55.76-27.49Q53.76-27.49 52.12-26.7 50.49-25.9 49.34-24.51 48.19-23.12 47.56-21.2 46.92-19.29 46.92-17.02L46.92-17.02Q46.92-15.01 47.36-13.2 47.8-11.38 48.69-10.01 49.58-8.64 50.91-7.82 52.24-7.01 54-7.01L54-7.01Q55.39-7.01 56.47-7.1 57.54-7.2 58.47-7.42 59.4-7.64 60.29-8.01 61.18-8.37 62.2-8.94L62.2-8.94Q62.25-8.96 62.45-8.96L62.45-8.96Q62.62-8.96 62.68-8.83 62.74-8.69 62.74-8.28L62.74-8.28 62.74-5.35Q62.74-4.54 62.73-3.77 62.72-3 62.71-2.39 62.69-1.78 62.68-1.4 62.67-1.03 62.64-1.03L62.64-1.03Q61.52-0.32 60.24 0.13 58.96 0.59 57.6 0.84 56.25 1.1 54.88 1.18 53.51 1.27 52.24 1.27L52.24 1.27Q48.8 1.27 45.8-0.04 42.8-1.34 40.59-3.69 38.38-6.03 37.11-9.3 35.84-12.57 35.84-16.5Z" opacity="1" transform="matrix(1,0,0,1,0,0)" fill="#ffffff" class="wordmark-text-0" data-fill-palette-color="primary" id="text-0"></path></svg></g></svg></g></svg></g></svg></g><g><svg viewBox="0 0 244.43135999999998 244.43135999999998" height="244.43135999999998" width="244.43135999999998"><g data-palette-color="#2ecc40"><rect width="66.8112384" height="244.43135999999998" fill="#2ecc40" stroke="transparent" data-fill-palette-color="accent" x="0" fill-opacity="0.5"></rect><rect width="66.8112384" height="244.43135999999998" fill="#2ecc40" stroke="transparent" data-fill-palette-color="accent" x="81.47711999999999" fill-opacity="0.75"></rect><rect width="66.8112384" height="244.43135999999998" fill="#2ecc40" stroke="transparent" data-fill-palette-color="accent" x="162.95423999999997" fill-opacity="1"></rect></g></svg></g></svg></g><defs></defs></svg><rect width="395.52" height="138.67126741085067" fill="none" stroke="none" visibility="hidden"></rect></g></svg></g></svg>