<svg id="Layer_1" enable-background="new 0 0 512 512" viewBox="0 0 512 512" xmlns="http://www.w3.org/2000/svg"><g><path d="m493.085 64.62h-205.193l-28.725 219.113 28.725 228.267h205.193z" fill="#00aa8e"/><path d="m82.699 64.62h205.193v447.38h-205.193z" fill="#00ccb1"/><path d="m429.302 0h-205.194l-28.725 219.113 28.725 228.267h205.194z" fill="#0a1f33"/><path d="m18.915 0v447.38h205.193v-125.668l16.722-62.274-16.722-53.533v-29.988l11.701-63.486-11.701-52.161v-60.27z" fill="#143d66"/><g><g><path d="m342.904 361.062h30v29.988h-30z" fill="#00cb71"/></g></g><g><g><path d="m336.713 175.917h-30v-85.818h-23.809v-29.989h53.809z" fill="#00cb71"/></g></g><g><path d="m124.786 321.648h-1.38c-24.433 0-44.31-19.87-44.31-44.293v-27.157c0-24.423 19.877-44.293 44.31-44.293h1.38c24.433 0 44.31 19.87 44.31 44.293v27.157c0 24.423-19.878 44.293-44.31 44.293zm-1.38-85.754c-7.891 0-14.31 6.417-14.31 14.305v27.157c0 7.888 6.419 14.305 14.31 14.305h1.38c7.891 0 14.31-6.417 14.31-14.305v-27.157c0-7.888-6.419-14.305-14.31-14.305z" fill="#00ed83"/></g><g><path d="m124.786 175.949h-1.38c-24.433 0-44.31-19.87-44.31-44.293v-27.157c0-24.423 19.877-44.293 44.31-44.293h1.38c24.433 0 44.31 19.87 44.31 44.293v27.157c0 24.423-19.878 44.293-44.31 44.293zm-1.38-85.755c-7.891 0-14.31 6.417-14.31 14.305v27.157c0 7.888 6.419 14.305 14.31 14.305h1.38c7.891 0 14.31-6.417 14.31-14.305v-27.157c0-7.888-6.419-14.305-14.31-14.305z" fill="#00ed83"/></g><g><g><path d="m328.594 321.648h-1.379c-24.433 0-44.311-19.87-44.311-44.293v-27.157c0-24.423 19.878-44.293 44.311-44.293h1.379c24.433 0 44.311 19.87 44.311 44.293v27.157c-.001 24.423-19.879 44.293-44.311 44.293zm-1.379-85.754c-7.891 0-14.311 6.417-14.311 14.305v27.157c0 7.888 6.42 14.305 14.311 14.305h1.379c7.891 0 14.311-6.417 14.311-14.305v-27.157c0-7.888-6.42-14.305-14.311-14.305z" fill="#00cb71"/></g></g><path d="m254.106 321.712v-115.807h-29.998l-6.938 15.42 6.938 14.569v85.818z" fill="#00cb71"/><path d="m200.298 205.905h23.81v29.988h-23.81z" fill="#00ed83"/><path d="m254.106 60.11h-29.998l-6.597 15.154 6.597 14.93v85.723h29.998z" fill="#00cb71"/><path d="m200.298 60.11h23.81v29.988h-23.81z" fill="#00ed83"/><path d="m312.904 361.062h-88.796l-8.901 15.583 8.901 14.406h88.796z" fill="#00cb71"/><path d="m173.84 361.062h50.268v29.988h-50.268z" fill="#00ed83"/></g><g/><g/><g/><g/><g/><g/><g/><g/><g/><g/><g/><g/><g/><g/><g/></svg>