<svg id="Capa_1" enable-background="new 0 0 512 512" height="512" viewBox="0 0 512 512" width="512" xmlns="http://www.w3.org/2000/svg"><g><g fill="#00f2a6"><path d="m86.728 444.5c42.695 36.173 97.93 58 158.272 58s115.576-21.827 158.272-58z"/><path d="m302.421 57.5v-33c0-1.759.34-3.436.935-4.988-18.705-4.571-38.244-7.012-58.356-7.012-52.729 0-101.565 16.661-141.537 45z"/><path d="m32 136.372c-20.36 35.726-32 77.066-32 121.128s11.64 85.402 32 121.128z"/></g><g><path d="m464.217 148.024h-147.796c-7.72 0-14-6.28-14-14v-27.524h-146.421v338h-.023l1.023 1h245.089c53.728-44.942 87.911-112.475 87.911-188 0-39.352-9.292-76.528-25.783-109.476z" fill="#678d98"/><path d="m195 444.5v-338h-39v338h-.023l1.023 1h39l-1.023-1z" fill="#537983"/><path d="m35 106.5-4 1v323c0 8.284 6.716 15 15 15h111v-339z" fill="#cbe5e8"/><path d="m73.579 430.5v-323l4-1h-42.579l-4 1v323c0 8.284 6.716 15 15 15h42.579c-8.284 0-15-6.716-15-15z" fill="#a8d3d8"/><g fill="#7ca1b1"><path d="m70 134.873h-13c-1.657 0-3 1.343-3 3v9c0 1.657 1.343 3 3 3h13c1.657 0 3-1.343 3-3v-9c0-1.657-1.343-3-3-3z"/><path d="m88 137.873v9c0 1.657 1.343 3 3 3h42c1.657 0 3-1.343 3-3v-9c0-1.657-1.343-3-3-3h-42c-1.657 0-3 1.343-3 3z"/></g><g fill="#7ca1b1"><path d="m70 171h-13c-1.657 0-3 1.343-3 3v9c0 1.657 1.343 3 3 3h13c1.657 0 3-1.343 3-3v-9c0-1.657-1.343-3-3-3z"/><path d="m88 174v9c0 1.657 1.343 3 3 3h42c1.657 0 3-1.343 3-3v-9c0-1.657-1.343-3-3-3h-42c-1.657 0-3 1.343-3 3z"/></g><g><path d="m133 222h-76c-1.657 0-3-1.343-3-3v-9c0-1.657 1.343-3 3-3h76c1.657 0 3 1.343 3 3v9c0 1.657-1.343 3-3 3z" fill="#7ca1b1"/></g><g><path d="m133 294h-76c-1.657 0-3-1.343-3-3v-9c0-1.657 1.343-3 3-3h76c1.657 0 3 1.343 3 3v9c0 1.657-1.343 3-3 3z" fill="#7ca1b1"/></g><g fill="#7ca1b1"><path d="m70 315h-13c-1.657 0-3 1.343-3 3v9c0 1.657 1.343 3 3 3h13c1.657 0 3-1.343 3-3v-9c0-1.657-1.343-3-3-3z"/><path d="m88 318v9c0 1.657 1.343 3 3 3h42c1.657 0 3-1.343 3-3v-9c0-1.657-1.343-3-3-3h-42c-1.657 0-3 1.343-3 3z"/></g><g><path d="m133 366h-76c-1.657 0-3-1.343-3-3v-9c0-1.657 1.343-3 3-3h76c1.657 0 3 1.343 3 3v9c0 1.657-1.343 3-3 3z" fill="#7ca1b1"/></g><g fill="#7ca1b1"><path d="m70 387h-13c-1.657 0-3 1.343-3 3v9c0 1.657 1.343 3 3 3h13c1.657 0 3-1.343 3-3v-9c0-1.657-1.343-3-3-3z"/><path d="m88 390v9c0 1.657 1.343 3 3 3h42c1.657 0 3-1.343 3-3v-9c0-1.657-1.343-3-3-3h-42c-1.657 0-3 1.343-3 3z"/></g><path d="m302.421 56.5h-256.421c-8.284 0-15 6.716-15 15v36h271.421z" fill="#8ebac5"/><path d="m88.579 56.5h-42.579c-8.284 0-15 6.716-15 15v36h42.579v-36c0-8.284 6.716-15 15-15z" fill="#7ca1b1"/><g><g><circle cx="61.5" cy="83" fill="#fe7d43" r="7.5"/></g><g><circle cx="85.5" cy="83" fill="#ffd15b" r="7.5"/></g><g><circle cx="109.5" cy="83" fill="#00f2a6" r="7.5"/></g></g><g><path d="m216 138v9c0 1.657 1.343 3 3 3h45c1.657 0 3-1.343 3-3v-9c0-1.657-1.343-3-3-3h-45c-1.657 0-3 1.343-3 3z" fill="#fe7d43"/><path d="m198 135h-9c-1.657 0-3 1.343-3 3v9c0 1.657 1.343 3 3 3h9c1.657 0 3-1.343 3-3v-9c0-1.657-1.343-3-3-3z" fill="#fff"/></g><g><path d="m198 171h-9c-1.657 0-3 1.343-3 3v9c0 1.657 1.343 3 3 3h9c1.657 0 3-1.343 3-3v-9c0-1.657-1.343-3-3-3z" fill="#fff"/><g fill="#6cf5c2"><path d="m273 171h-54c-1.657 0-3 1.343-3 3v9c0 1.657 1.343 3 3 3h54c1.657 0 3-1.343 3-3v-9c0-1.657-1.343-3-3-3z"/><path d="m291 174v9c0 1.657 1.343 3 3 3h154c1.657 0 3-1.343 3-3v-9c0-1.657-1.343-3-3-3h-154c-1.657 0-3 1.343-3 3z"/></g></g><g><path d="m198 207h-9c-1.657 0-3 1.343-3 3v9c0 1.657 1.343 3 3 3h9c1.657 0 3-1.343 3-3v-9c0-1.657-1.343-3-3-3z" fill="#fff"/><g><path d="m344 207h-125c-1.657 0-3 1.343-3 3v9c0 1.657 1.343 3 3 3h125c1.657 0 3-1.343 3-3v-9c0-1.657-1.343-3-3-3z" fill="#ffd15b"/><path d="m362 210v9c0 1.657 1.343 3 3 3h83c1.657 0 3-1.343 3-3v-9c0-1.657-1.343-3-3-3h-83c-1.657 0-3 1.343-3 3z" fill="#fe7d43"/></g></g><g fill="#fff"><path d="m198 243h-9c-1.657 0-3 1.343-3 3v9c0 1.657 1.343 3 3 3h9c1.657 0 3-1.343 3-3v-9c0-1.657-1.343-3-3-3z"/><path d="m216 246v9c0 1.657 1.343 3 3 3h45c1.657 0 3-1.343 3-3v-9c0-1.657-1.343-3-3-3h-45c-1.657 0-3 1.343-3 3z"/></g><g fill="#fff"><path d="m198 279h-9c-1.657 0-3 1.343-3 3v9c0 1.657 1.343 3 3 3h9c1.657 0 3-1.343 3-3v-9c0-1.657-1.343-3-3-3z"/><path d="m216 282v9c0 1.657 1.343 3 3 3h229c1.657 0 3-1.343 3-3v-9c0-1.657-1.343-3-3-3h-229c-1.657 0-3 1.343-3 3z"/></g><g><path d="m198 315h-9c-1.657 0-3 1.343-3 3v9c0 1.657 1.343 3 3 3h9c1.657 0 3-1.343 3-3v-9c0-1.657-1.343-3-3-3z" fill="#fff"/><g><path d="m313 330h59c1.657 0 3-1.343 3-3v-9c0-1.657-1.343-3-3-3h-59c-1.657 0-3 1.343-3 3v9c0 1.657 1.343 3 3 3z" fill="#ffd15b"/><path d="m292 315h-73c-1.657 0-3 1.343-3 3v9c0 1.657 1.343 3 3 3h73c1.657 0 3-1.343 3-3v-9c0-1.657-1.343-3-3-3z" fill="#fff"/><path d="m390 318v9c0 1.657 1.343 3 3 3h55c1.657 0 3-1.343 3-3v-9c0-1.657-1.343-3-3-3h-55c-1.657 0-3 1.343-3 3z" fill="#ffd15b"/></g></g><g><path d="m198 351h-9c-1.657 0-3 1.343-3 3v9c0 1.657 1.343 3 3 3h9c1.657 0 3-1.343 3-3v-9c0-1.657-1.343-3-3-3z" fill="#fff"/><path d="m216 354v9c0 1.657 1.343 3 3 3h45c1.657 0 3-1.343 3-3v-9c0-1.657-1.343-3-3-3h-45c-1.657 0-3 1.343-3 3z" fill="#fe7d43"/></g><g fill="#fff"><path d="m198 387h-9c-1.657 0-3 1.343-3 3v9c0 1.657 1.343 3 3 3h9c1.657 0 3-1.343 3-3v-9c0-1.657-1.343-3-3-3z"/><g><path d="m302 402h54c1.657 0 3-1.343 3-3v-9c0-1.657-1.343-3-3-3h-54c-1.657 0-3 1.343-3 3v9c0 1.657 1.343 3 3 3z"/><path d="m281 387h-62c-1.657 0-3 1.343-3 3v9c0 1.657 1.343 3 3 3h62c1.657 0 3-1.343 3-3v-9c0-1.657-1.343-3-3-3z"/><path d="m374 390v9c0 1.657 1.343 3 3 3h47c1.657 0 3-1.343 3-3v-9c0-1.657-1.343-3-3-3h-47c-1.657 0-3 1.343-3 3z"/></g></g></g><g><g><path d="m497 149.025h-180.579c-8.284 0-15-6.716-15-15v-109.525c0-8.284 6.716-15 15-15h180.579c8.284 0 15 6.716 15 15v109.525c0 8.284-6.716 15-15 15z" fill="#0593fc"/></g><path d="m341 134.025v-109.525c0-8.284 6.716-15 15-15h-39.579c-8.284 0-15 6.716-15 15v109.525c0 8.284 6.716 15 15 15h39.579c-8.284 0-15-6.716-15-15z" fill="#0182fc"/><g><g><g><g><path d="m364.173 110.65-38.896-24.729c-.866-.551-1.39-1.506-1.39-2.532v-9.363c0-1.026.525-1.981 1.39-2.532l38.896-24.728c1.398-.889 3.252-.476 4.141.922l4.828 7.595c.889 1.398.476 3.252-.922 4.141l-26.349 16.751c-1.854 1.179-1.854 3.885 0 5.063l26.349 16.752c1.398.889 1.811 2.743.922 4.141l-4.828 7.595c-.888 1.4-2.742 1.813-4.141.924z" fill="#fff"/></g><g><path d="m445.107 109.728-4.828-7.595c-.889-1.398-.476-3.252.922-4.141l26.348-16.752c1.854-1.179 1.854-3.885 0-5.063l-26.348-16.751c-1.398-.889-1.811-2.743-.922-4.141l4.828-7.595c.889-1.398 2.743-1.811 4.141-.922l38.895 24.728c.866.551 1.39 1.506 1.39 2.532v9.363c0 1.026-.524 1.981-1.39 2.532l-38.895 24.729c-1.398.887-3.252.474-4.141-.924z" fill="#fff"/></g></g></g><g><path d="m393.638 115.757-8.063-3.998c-1.484-.736-2.091-2.536-1.355-4.02l31.542-63.615c.736-1.484 2.536-2.091 4.021-1.355l8.063 3.998c1.484.736 2.091 2.536 1.355 4.02l-31.542 63.615c-.736 1.484-2.536 2.091-4.021 1.355z" fill="#fff"/></g></g></g></g></svg>