<svg id="Layer_2" height="512" viewBox="0 0 512 512" width="512" xmlns="http://www.w3.org/2000/svg" data-name="Layer 2"><g id="Icon"><path id="N" d="m362 0h-212c-82.84 0-150 67.16-150 150v212c0 82.84 67.16 150 150 150h212c82.84 0 150-67.16 150-150v-212c0-82.84-67.16-150-150-150zm100 362c0 55.14-44.86 100-100 100h-212c-55.14 0-100-44.86-100-100v-212c0-55.14 44.86-100 100-100h212c55.14 0 100 44.86 100 100zm-339.22 18.41v-35.03l25.63-5.47v-167.65l-25.63-5.47v-35.21h86.65l99.8 159.28h1.03v-118.6l-32.64-5.47v-35.21h111.6v35.21l-25.81 5.47v208.15h-59.13l-101.68-155.86h-1.03v115.36l32.81 5.47v35.03z"/></g></svg>