<svg xmlns="http://www.w3.org/2000/svg" version="1.1" xmlns:xlink="http://www.w3.org/1999/xlink" xmlns:svgjs="http://svgjs.dev/svgjs" width="128" height="128" viewBox="0 0 128 128"><g transform="matrix(0.8046875,0,0,0.8046875,12.504348193177975,0.6282636088709808)"><svg viewBox="0 0 126 155" data-background-color="#000008" preserveAspectRatio="xMidYMid meet" height="157" width="128" xmlns="http://www.w3.org/2000/svg" xmlns:xlink="http://www.w3.org/1999/xlink"><g id="tight-bounds" transform="matrix(1,0,0,1,-0.0053191489361665845,0.2499999999999858)"><svg viewBox="0 0 126.01063829787233 154.5" height="154.5" width="126.01063829787233"><g><svg viewBox="0 0 126.01063829787233 154.5" height="154.5" width="126.01063829787233"><g><svg viewBox="0 0 126.01063829787233 154.5" height="154.5" width="126.01063829787233"><g id="textblocktransform"><svg viewBox="0 0 126.01063829787233 154.5" height="154.5" width="126.01063829787233" id="textblock"><g><svg viewBox="0 0 126.01063829787233 154.5" height="154.5" width="126.01063829787233"><g transform="matrix(1,0,0,1,0,0)"><svg width="126.01063829787233" viewBox="3.32 -36.18 30.880000000000003 37.86" height="154.5" data-palette-color="#ffffff"><path d="M34.2-25.37L34.2-25.37Q34.18-23.27 33.8-21.61 33.42-19.95 32.73-18.62 32.03-17.29 31.04-16.22 30.05-15.16 28.78-14.23L28.78-14.23Q26.34-12.48 23.44-11.58 20.53-10.69 17.6-10.69L17.6-10.69Q17.11-10.69 16.64-10.72 16.16-10.74 15.67-10.79L15.67-10.79 14.87-1.88 14.45-1.12Q14.4-1.03 13.62-0.73 12.84-0.44 11.67-0.05L11.67-0.05 10.13 0.46Q9.4 0.73 8.84 0.95 8.28 1.17 7.79 1.34 7.3 1.51 6.84 1.6 6.37 1.68 5.86 1.68L5.86 1.68Q5.52 1.68 5.32 1.51 5.13 1.34 5.13 0.85L5.13 0.85 5.4-3.32Q5.47-4.57 5.58-5.82 5.69-7.08 5.79-8.69L5.79-8.69 6.25-14.53Q6.4-16.31 6.52-18.09 6.64-19.87 6.76-21.48 6.88-23.1 6.98-24.5 7.08-25.9 7.15-26.95L7.15-26.95Q5.83-26.66 5.04-26.53 4.25-26.39 3.83-26.39L3.83-26.39Q3.32-26.39 3.32-26.83L3.32-26.83Q3.66-28.03 3.96-29.17L3.96-29.17Q4.22-30.15 4.5-31.19 4.79-32.23 4.98-32.93L4.98-32.93Q5.1-33.37 5.26-33.61 5.42-33.84 5.68-33.97 5.93-34.11 6.34-34.22 6.74-34.33 7.32-34.52L7.32-34.52Q7.79-34.67 8.63-34.85 9.47-35.03 10.56-35.22 11.65-35.4 12.92-35.57 14.18-35.74 15.49-35.88 16.8-36.01 18.07-36.1 19.34-36.18 20.46-36.18L20.46-36.18Q23.24-36.18 25.73-35.67 28.22-35.16 30.1-33.92 31.98-32.69 33.09-30.6 34.2-28.52 34.2-25.37ZM16.36-18.04L16.36-18.04Q16.36-17.77 16.46-17.57 16.55-17.36 16.99-17.36L16.99-17.36Q17.68-17.36 18.62-17.66 19.56-17.97 20.5-18.58 21.44-19.19 22.24-20.09 23.05-21 23.46-22.22L23.46-22.22Q23.63-22.71 23.74-23.46 23.85-24.22 23.85-25.24L23.85-25.24Q23.85-26.95 22.67-27.76 21.48-28.56 19.58-28.56L19.58-28.56Q19.26-28.56 18.86-28.53 18.46-28.49 18.1-28.39 17.75-28.3 17.5-28.16 17.26-28.03 17.24-27.81L17.24-27.81 17.19-27.27Q17.16-26.95 17.09-26.23 17.02-25.51 16.93-24.58 16.85-23.66 16.76-22.63 16.67-21.61 16.59-20.68 16.5-19.75 16.44-19.04 16.38-18.33 16.36-18.04Z" opacity="1" transform="matrix(1,0,0,1,0,0)" fill="#000000" class="wordmark-text-0" data-fill-palette-color="primary" id="text-0"></path></svg></g></svg></g></svg></g></svg></g></svg></g><defs></defs></svg><rect width="126.01063829787233" height="154.5" fill="none" stroke="none" visibility="hidden"></rect></g></svg></g></svg>