<?xml version="1.0" encoding="utf-8"?>
<!-- Generator: Adobe Illustrator 19.2.1, SVG Export Plug-In . SVG Version: 6.00 Build 0)  -->
<!DOCTYPE svg PUBLIC "-//W3C//DTD SVG 1.1//EN" "http://www.w3.org/Graphics/SVG/1.1/DTD/svg11.dtd">
<svg version="1.1" id="graphic_x5F_header_x5F_logo"
	 xmlns="http://www.w3.org/2000/svg" xmlns:xlink="http://www.w3.org/1999/xlink" x="0px" y="0px" width="230px" height="65px"
	 viewBox="0 0 230 65" style="enable-background:new 0 0 230 65;" xml:space="preserve">
<style type="text/css">
	.st0{fill:#9A8A79;}
</style>
<g>
	<path class="st0" d="M82.9,40.2c-0.4,0-0.8,0-1.1,0.1c-0.5,0.2-1.1,0.7-1.9,1.6c0.8-1,0.4-1.6,0-1.8c-1.6-0.7-4.9,1.2-6.5,3.4
		c-1.4,1.9-1.6,4.6,0.4,4.6c1,0,2.2-1,3.5-2.3c-0.6,1.5,0.3,2.3,1.3,2.3c0.8,0,2.1-1,2.7-1.6c0.5-0.5,1.4-1.4,2-2.1
		c0.1-0.1,0.2-0.2,0-0.3c-0.1-0.1-0.2-0.1-0.2,0c-0.5,0.6-1.4,1.5-2,2.2c-0.8,0.8-2.1,1.6-2.6,1.4c-0.5-0.2-0.2-0.9,0.4-2
		C79.5,44.6,81.1,42.3,82.9,40.2 M79.7,40.5c0.8,0.4-0.8,2.4-1.6,3.5c-1.7,2.3-3.7,4-4.3,3.8c-0.8-0.3,0-2,1.2-3.6
		C77.2,41.4,79,40.1,79.7,40.5"/>
	<path class="st0" d="M98.3,44.6c-0.6,0.8-1.5,1.7-2.4,2.4c-0.9,0.8-2,1.2-2.8,1.1c-0.8-0.2-1.6-1.1-1.1-2.4
		c0.4-0.9,0.8-1.4,1.7-2.4c0.7-0.8,2.6-2.5,1.9-2.8c-0.5-0.3-3.8,1.7-5.4,3.5c-1.6,1.7-1.9,2.5-2.8,4.3c-0.4,0-0.7-0.8-0.6-1
		c0.3-1.4,0.9-2.4,1.9-3.9c0.6-0.9,2.6-2.6,1.9-2.8c-0.8-0.3-4.4,2.2-5.8,4c-1.3,1.6-1.5,2-2.4,3.8c-0.4,0-0.7-0.7-0.7-1
		c0.3-1.3,1-2.8,2.2-4.5c0.6-0.9,1.4-1.7,2-2.2c0.4-0.3,1.2-0.4,1.9-0.4c-0.8,0.6-2.1,2.1-2.9,3.5c1.6-1.6,4.4-3.9,6-3.6
		c1,0.1,1.2,1.2,0.7,2c1.5-1.1,3.3-2.3,4.2-2c2.2,0.7,0.4,2.8-0.6,3.9c-0.7,0.8-1.2,1.5-1.6,2.1c-0.5,0.8-0.8,1.3-0.4,1.6
		c0.4,0.2,1.5-0.3,2.4-1.1c1-0.8,2-1.7,2.4-2.3c0.1-0.1,0-0.3,0.2-0.1C98.7,44.3,98.4,44.5,98.3,44.6"/>
	<path class="st0" d="M99.3,45.7c-0.5,1-0.8,1.8-0.3,2c0.6,0.2,1.9-0.7,2.5-1.2c0.8-0.7,1.9-1.8,2.3-2.3c0.1-0.1,0.1-0.2,0.3-0.1
		c0.2,0.1,0,0.2-0.1,0.3c-0.5,0.7-1.7,2-2.2,2.4c-0.8,0.6-1.8,1.4-2.7,1.4c-2,0-2-2.1-0.5-4.2c0.8-1.1,2.3-2.9,3.3-3.5
		c0.4-0.2,1.2-0.3,1.6-0.3C101.7,42.2,99.9,44.6,99.3,45.7 M104.4,38.6c-0.4,0-1-0.3-1.1-0.7c-0.2-0.4,0.1-0.7,0.6-0.7
		c0.5,0,1,0.3,1.1,0.7C105.1,38.3,104.8,38.6,104.4,38.6"/>
	<path class="st0" d="M148.3,40.4c0.9,2.6-0.4,5.4-2.9,7.9c-2.9,2.9-7.1,5.1-10.8,5.3c-0.4,0-0.7,0-1.1,0c0-0.2,0-0.5,0-0.8
		c0-3.6,2.7-7.6,6.1-10.2c1.2-0.9,2.8-1.5,3.7-1.6c0.4,0.2,0.9,0.5,1.5,0.6c0.8,0.2,1.4,0.3,1.5-0.1c0-0.2-0.6-0.6-1.4-0.8
		c-0.4-0.1-1-0.2-1.4-0.2c-0.2-0.6-0.2-1.7,0.3-2.8c0.1-0.4,0.4-0.9,0.9-1.3C146.4,37.3,147.7,38.8,148.3,40.4 M147.3,32.5
		c-1.8,0.8-3.1,1.9-3.9,3c-1.1-0.4-2.3-0.5-3.6-0.5c-4,0-7.5,1.4-9.4,3.9c-1.2,1.6-1.7,4-0.8,6.2c0.2,0.5,0.6,1.1,0.9,1.4
		c0.1,0.1,0.3,0.2,0.4,0.2c0-0.1,0-0.1,0-0.2c-0.2-0.3-0.8-0.8-1-1.4c-0.8-2.1-0.1-4.1,1-5.7c1.7-2.5,5.3-4.2,8.9-4.2
		c1.2,0,2.4,0.3,3.4,0.6c-0.4,0.6-0.6,1.3-0.8,1.9c-0.2,0.9,0.2,2.2,0.6,2.9c-2.4,0.4-5,1.4-6.7,2.6c-2.4,1.6-5.6,5.2-4.7,9.4
		c0.1,0.3,0,0.9,0.3,0.9c-3.6-0.3-6.4-2.7-7.6-5.8c-1.3-3.4-0.4-8,2.2-10.6c3.3-3.4,8.7-4.8,13.8-4.8
		C142.6,32.2,145,32.3,147.3,32.5 M162.6,34c0.1-1.4-2.3-2.4-4.4-2.7c-3.3-0.5-6.7-0.3-9.5,0.5c-3-0.5-6-0.9-8.7-0.9
		c-6,0-10.9,1.8-14.2,5.2c-2.7,2.8-3.7,7.3-2.2,11.1c1.3,3.5,4.1,6,8.4,6.6c1.5,3.3,5.3,3.9,8.6,3.3c3.5-0.6,6.1-2,8.6-4.4
		c0.9-0.8,2-2.1,1.7-2.3c-0.3-0.2-0.3,0.4-0.7,0.7c-0.5,0.6-0.3,0.5-1.2,1.2c-2.3,2.1-4.3,3.4-8.3,4.1c-2.8,0.5-6.4-0.1-7.2-2.6
		c0.4,0,0.7,0,1.1,0c4.6-0.2,8.4-2.3,11.4-5.1c2.2-2.1,4-5.2,2.8-8.6c-0.6-1.6-1.9-3.2-3.9-4.3c1.2-1.2,3.2-2.4,5.4-3.3
		c3.3,0.4,6.3,1,9.2,1.6c0.4,0.1,1.5,0.2,1.8,0.2C162,34.6,162.6,34.4,162.6,34 M162.2,33.8c0,0.3-0.7,0.5-1.1,0.5
		c-0.4,0-1.2-0.2-1.6-0.2c-1.9-0.4-4.9-1.1-8-1.7c2.1-0.7,4.6-1,7-0.6C161,32.1,162.3,33.1,162.2,33.8"/>
	<path class="st0" d="M158.1,37.9c-0.5-0.3-1,0.1-1.7,0.9c-0.5,0.6-0.8,1.1-1.3,1.9c-0.5,0.8-1.6,2-2.5,2.9c-0.4,0-0.7,0.4-1.1,0.8
		c-0.3,0.3-0.7,0.8-0.9,1c-0.5,0.5-0.7,1.1-0.5,1.6c0.2,0.7,1,1,1.8,1c0.6,0,2.1-0.1,2.9-0.6c1.1-0.5,3-1.7,4.2-3.2
		c0.1-0.1,0.3-0.2,0.2-0.3c-0.2-0.1-0.2-0.1-0.3,0c-1,1.1-2.7,2.4-4.4,3.2c2.1-1.6,1.3-3.7,1.1-4.9c-0.1-0.4-0.1-1,0-1.4
		c0.3-0.4,1-0.9,1.6-1.3C158.3,38.7,158.4,38.1,158.1,37.9 M155.2,41.3c0.1,1.2-0.4,3.4-1,4.4c-0.7,1.2-1.8,1.7-2.7,1.7
		c-0.4,0-0.9-0.2-1-0.5c-0.1-0.3,0-0.6,0.4-0.9c0.3-0.3,0.9-0.7,1.2-0.9c0.6-0.4,0.9-0.9,0.9-1.1C153.8,43.1,154.7,42.1,155.2,41.3"
		/>
	<path class="st0" d="M174.3,40.1c-0.4,0-0.8,0-1.1,0.1c-0.5,0.2-1.1,0.7-1.9,1.6c0.8-1,0.4-1.6,0-1.8c-1.6-0.7-4.9,1.2-6.5,3.4
		c-1.4,1.9-1.6,4.6,0.4,4.6c1,0,2.2-1,3.5-2.3c-0.6,1.5,0.3,2.3,1.4,2.3c0.8,0,2.2-1,2.8-1.6c0.5-0.5,1.4-1.5,2-2.1
		c0.1-0.1,0.3-0.2,0.2-0.3c-0.1-0.1-0.3,0-0.4,0c-0.5,0.6-1.3,1.5-2,2.2c-0.6,0.6-2.2,1.6-2.7,1.4c-0.5-0.2-0.2-0.9,0.4-2
		C170.9,44.4,172.5,42.2,174.3,40.1 M171.1,40.3c0.8,0.4-0.8,2.4-1.6,3.5c-1.7,2.3-3.7,4-4.4,3.8c-0.8-0.3,0-2,1.2-3.6
		C168.6,41.3,170.4,39.9,171.1,40.3"/>
	<path class="st0" d="M186.2,39.9c-1.3-0.5-4.2,1.2-5.7,3.1c-1.3,1.7-1.2,3-1,3.5c0.2,1,1.1,1.4,1.9,1.4c1.2,0.1,2.4-0.6,3.2-1.2
		c1-0.8,2-1.6,2.7-2.4c0.1-0.1,0.2-0.2,0-0.4c-0.1-0.1-0.2,0-0.2,0.1c-0.6,0.7-1.8,1.8-3,2.6c-1,0.7-2.2,1.1-2.8,0.9
		c-1.3-0.4-0.1-2.8,1.2-4.3c0.7,0.3,2.7-0.4,3.5-0.9C186.8,41.6,187.4,40.4,186.2,39.9 M186.2,40.2c0.4,0.2,0,1-0.7,1.7
		c-1,0.9-2.3,1.4-2.8,1.2C183.6,41.8,185.7,39.9,186.2,40.2"/>
	<path class="st0" d="M193.2,37.8c-0.5-0.3-1,0.1-1.7,0.9c-0.5,0.6-0.8,1.1-1.3,1.9c-0.5,0.8-1.6,2-2.5,3c-0.4,0-0.8,0.4-1.1,0.8
		c-0.3,0.3-0.7,0.8-0.9,1c-0.5,0.5-0.7,1.1-0.5,1.6c0.3,0.7,1,1,1.8,1c0.6,0.1,2.1-0.1,2.9-0.6c1.1-0.5,2.8-1.7,4-3.2
		c0.1-0.1,0.2-0.2,0-0.3c-0.2-0.1-0.2-0.1-0.3,0c-1.1,1.4-2.5,2.4-4.1,3.2c2.1-1.6,1.3-3.7,1.1-4.9c-0.1-0.4-0.1-1,0.1-1.4
		c0.3-0.4,1-0.9,1.6-1.3C193.3,38.7,193.5,38,193.2,37.8 M190.2,41.3c0.1,1.2-0.3,3.3-1,4.4c-0.7,1.2-1.8,1.7-2.7,1.7
		c-0.4,0-0.8-0.2-1-0.5c-0.1-0.3,0-0.6,0.4-0.9c0.3-0.3,0.9-0.7,1.2-0.9c0.6-0.4,0.9-0.9,0.9-1.1C188.9,43,189.7,42.1,190.2,41.3"/>
	<path class="st0" d="M108.3,51.9c-2,1.9-4.9,4.1-8.6,3.8c-3.2-0.2-4.9-2.8-3.1-4.4c3-2.4,7.6-2.2,12.8-0.7
		C109.1,51.1,108.7,51.6,108.3,51.9 M96.1,51.7c-1.5,2.4,1.1,4.6,4.3,4.6c3.3,0,6.6-1.4,9.5-4c0.4-0.3,0.8-0.8,1.1-1.1
		c4.2,1.3,7.1,3.4,8.5,6.8c0.6,1.3,0.4,2.9-0.2,3.8c-0.4,0.8-1.4,1.5-1.7,1.9c-0.1,0.1-0.2,0.5-0.1,0.5c2.3-1.7,3-3.8,2.2-6.1
		c-1.2-3.5-3.8-5.6-8.5-7.3c1.4-1.6,2.7-3.7,3.5-4.8c0.6-1,2.4-3.5,3.4-4.9c0.4-0.5,0.6-0.7,0.8-0.9c0.1-0.1,0.2-0.1,0.2-0.2
		c0-0.1-0.1-0.1-0.3-0.1c-0.5,0-1,0.1-1.3,0.3c-1,0.7-2.1,2.1-2.4,2.5c-0.9,1.1-2.4,2.7-3.2,3.5c-0.7,0.7-1.9,1.5-2.3,1.3
		c-0.5-0.2-0.1-0.9,0.4-2c0.6-1.1,2.5-3.5,4.4-5.4c-0.4,0-1.3,0.1-1.7,0.3c-1.1,0.6-2.6,2.2-3.4,3.3c-1.4,2.1-1.4,4.2,0.5,4.2
		c0.8,0,1.7-0.7,2.5-1.5c0.5-0.5,0.8-0.8,1.2-1.3c-1,1.5-2.6,3.7-3.7,5C104,48.8,98.4,49,96.1,51.7"/>
	<path class="st0" d="M123.1,28.2L123.1,28.2c0.1,0,0.2,0,0.3,0c0,0,0.1,0,0.1,0c0.4,0,0.7,0.2,1,0.3c0.4,0.1,0.6,0.1,0.6-0.2
		c0-0.1-0.2-0.2-0.5-0.3c-0.7-0.1-1.4-0.2-1.9-0.2c-2.3,0-5,1.5-6.7,2.6c-3.4,2.4-7.4,6.5-10.6,11.1c-1.2,1.8-2.1,3.2-2.3,4.2
		c-0.4,1.4,0.1,2.2,1,2.4c0.8,0.1,1.7-0.3,2.7-1.1c0.8-0.7,1.9-1.9,2.5-2.6c0.1-0.1,0.3-0.2,0.1-0.3c-0.2-0.1-0.2,0-0.3,0.1
		c-0.9,1-1.8,1.9-2.5,2.4c-1,0.8-1.8,1.2-2.3,1c-0.8-0.3,0.6-2.9,2.3-5.1c4.4-5.7,6.9-9.1,10.8-12c1.4-1.1,3.2-2.3,5.3-2.3
		C122.8,28.2,123,28.2,123.1,28.2"/>
	<path class="st0" d="M169.7,34.5c0.3,0,0.4-0.2,0.2-0.3c-0.1-0.1-0.6-0.1-1,0c-0.9,0.2-1.9,0.6-2.9,1.4c-1.6,1.2-3.4,3.2-4.8,5
		c-0.7,0.1-1.8,0.1-2.1,0.1c-0.1,0-0.3,0.1-0.3,0.2c0.1,0.2,0.3,0.1,0.4,0.1c0.4,0,1.2-0.1,1.7-0.1c-1.6,2.1-2.5,3.6-2.8,4.6
		c-0.3,1,0.1,2.1,1.1,2.4c1,0.3,2-0.3,3-1.2c0.8-0.8,1.9-1.9,2.4-2.5c0.1-0.1,0.2-0.3,0-0.4c-0.2-0.1-0.2,0-0.2,0.1
		c-0.7,0.8-1.8,2-2.4,2.4c-0.7,0.7-1.9,1.4-2.5,1.1c-1-0.4,0-2.2,2.1-5.1c0.4-0.5,0.7-1,1.1-1.5c0.7-0.1,2-0.1,2.6,0
		c0.1,0,0.3,0,0.3-0.1c0-0.1-0.2-0.2-0.2-0.2c-0.7-0.1-2,0-2.4,0c1.8-2.5,3.3-4.3,4.7-5.4c0.3-0.3,0.8-0.4,1.2-0.6
		C169,34.7,169.5,34.5,169.7,34.5"/>
	<path class="st0" d="M184.9,34.6c0.2-0.1,0.4-0.1,0.6-0.2c0.3,0,0.4-0.2,0.2-0.3c0,0-0.1,0-0.2-0.1c-1.1,0-2.5,0.4-3.9,1.5
		c-1.6,1.2-3.4,3.2-4.8,5c-0.7,0.1-1.8,0.1-2.1,0.1c-0.1,0-0.3,0.1-0.3,0.2c0.1,0.2,0.3,0.1,0.4,0.1c0.4,0,1.2-0.1,1.7-0.1
		c-1.5,2.1-2.5,3.6-2.8,4.6c-0.3,1,0.1,2.1,1.2,2.4c1,0.3,2-0.3,3-1.1c0.8-0.8,1.9-1.9,2.5-2.5c0.1-0.1,0.3-0.3,0.1-0.4
		c-0.2-0.1-0.3,0-0.4,0.1c-0.7,0.8-1.8,2-2.3,2.4c-0.7,0.7-2,1.4-2.6,1.1c-1-0.4,0-2.2,2.1-5.1c0.4-0.5,0.7-1,1.1-1.5
		c0.7-0.1,2-0.1,2.6,0c0.1,0,0.3,0,0.3-0.1c0-0.1-0.2-0.2-0.2-0.2c-0.7-0.1-2,0-2.3,0c1.8-2.5,3.3-4.3,4.7-5.4
		C184,34.9,184.5,34.7,184.9,34.6"/>
	<path class="st0" d="M52.1,49.6c-1.3,0-2.2-0.3-2.5-1.1c-0.2-0.6-0.2-1.1,0.3-1.6c1-1.2,5.6-2.3,11.1-2.1
		C58.4,47.5,54.4,49.6,52.1,49.6 M99.7,28.8c0-0.1-0.3-0.3-0.3-0.4c-1.4-0.6-0.7,0.1-0.4,0.7c1.1,3.6-5.6,4.4-12.2,4.2
		c-3.2-0.1-6.1-0.3-9.1-0.6c1.3-1.4,2.6-2.3,3.8-2.7c0.3-0.1,0.8,0,0.6-0.2c-0.1-0.2-0.6-0.1-0.9,0c-1.4,0.4-3,1.3-4.7,2.7
		c-2.2-0.2-5.3-0.6-8.8-0.9l-0.6,0c-3.2-0.3-6.7-0.5-10.1-0.5l-2,0c-8.9,0-15.4,0.9-20.7,3c-5.2,2-9.8,6.6-8,13
		c0.9,3.4,3.7,5.8,6.7,5.8c0.5,0,1-0.3,0.8-0.6c-0.1-0.2-0.6,0-1,0c-3-0.1-5.4-2.1-6.3-5.4c-1.5-5.6,3.2-10.6,8.3-12.2
		c4.3-1.4,10.8-2.1,17.3-2.2l2.1,0c1.4,0,2.8,0,4.1,0c2.9,0,6.5,0.2,9.5,0.4c3.3,0.2,6.5,0.5,8,0.7c-3,2.8-5.3,5.4-7.8,8.8
		c-0.3,0.5-0.9,1.3-1.3,1.8c-1.3,0-2.5,0.1-3.8,0.2c0.8-0.9,2-2.4,2.6-3.3c0.7-0.9,1.3-1.8,1.8-2.7c0-0.3-0.3,0.3-0.9,1
		c-1,1.3-2.5,2.9-4.7,5c-5.7,0.3-11,1.1-12.1,2.8c-0.4,0.4-0.4,1-0.2,1.6c0.4,0.8,1.3,1.4,2.9,1.4c3.3,0,7.2-2.4,10-5.3
		c1.5-0.1,2.7-0.1,4-0.2C61.8,50,55,57.4,47.8,57.4c-3.1,0-7.6-1-8.7-5.3c-0.5-1.9-0.7-6.2,3.5-9.5c2.9-2.4,5.7-3.2,7.9-3.8
		c1.2-0.3,2.6-0.7,4-1c0.8-0.1,0.8-0.3,0.2-0.2c-1.6,0.3-3,0.6-4.3,0.9c-2.1,0.6-4.8,1.5-6.9,3c-4.2,2.9-6,6.1-5.3,10.1
		c0.9,5.2,6.5,6.5,10.2,6.5c8.9,0,15.1-5.9,20.4-13.6c1.8-0.1,4.8,0,5.7,0.1c0.5,0,0.9,0,1-0.1c0.2-0.2,0.1-0.4-0.6-0.4
		c-1.1-0.1-3.9-0.2-5.7-0.1c0.3-0.3,0.7-1,0.9-1.4c2-2.9,3.6-5.4,6.8-9.1c3.6,0.3,6.5,0.5,10,0.6C93.9,34.1,101,32.5,99.7,28.8"/>
	<path class="st0" d="M14.1,12.4v-10h2.4c2.6,0,3.6,0.3,3.6,1.3c0,0.7-0.2,1.2-0.2,1.4c0,0.2,0.2,0.4,0.5,0.4c0.4,0,0.5-0.5,0.8-1.5
		c0.5-1.6,1.3-2.5,1.3-2.8c0-0.1-0.3-0.4-0.4-0.4c-0.1,0-0.6,0.6-3.7,0.6H8.8H8.1H6.7c-0.8,0-1.3,0-1.6-0.2C4.9,1.1,4.8,0.8,4.6,0.8
		C4.2,0.8,4.1,1,4.1,1.4C4.1,2.9,3,4.5,3,5.1c0,0.2,0.2,0.3,0.3,0.3c0.6,0,0.6-0.6,1.3-1.6c0.7-1.1,2-1.4,4.2-1.4h2v12.4
		c0,2.3-0.1,3-1.9,3.2c-0.8,0.1-1.2,0-1.2,0.5c0,0.3,0.2,0.5,0.6,0.5c0.6,0,2-0.2,4.1-0.2c2.1,0,3.6,0.2,4.2,0.2
		c0.4,0,0.6-0.2,0.6-0.5c0-0.7-0.8-0.4-1.7-0.7C14.1,17.6,14.1,16,14.1,12.4 M12.7,13.5c0,1.9,0.1,3.4,0.7,4.6
		C13,18,12.6,18,12.3,18c-0.4,0-0.8,0-1.1,0.1c0.4-0.5,0.4-1.8,0.4-3.7v-12h1.2V13.5z"/>
	<path class="st0" d="M14.1,12.4v-10h2.4c2.6,0,3.6,0.3,3.6,1.3c0,0.7-0.2,1.2-0.2,1.4c0,0.2,0.2,0.4,0.5,0.4c0.4,0,0.5-0.5,0.8-1.5
		c0.5-1.6,1.3-2.5,1.3-2.8c0-0.1-0.3-0.4-0.4-0.4c-0.1,0-0.6,0.6-3.7,0.6H8.8H8.1H6.7c-0.8,0-1.3,0-1.6-0.2C4.9,1.1,4.8,0.8,4.6,0.8
		C4.2,0.8,4.1,1,4.1,1.4C4.1,2.9,3,4.5,3,5.1c0,0.2,0.2,0.3,0.3,0.3c0.6,0,0.6-0.6,1.3-1.6c0.7-1.1,2-1.4,4.2-1.4h2v12.4
		c0,2.3-0.1,3-1.9,3.2c-0.8,0.1-1.2,0-1.2,0.5c0,0.3,0.2,0.5,0.6,0.5c0.6,0,2-0.2,4.1-0.2c2.1,0,3.6,0.2,4.2,0.2
		c0.4,0,0.6-0.2,0.6-0.5c0-0.7-0.8-0.4-1.7-0.7C14.1,17.6,14.1,16,14.1,12.4z M12.7,13.5c0,1.9,0.1,3.4,0.7,4.6
		C13,18,12.6,18,12.3,18c-0.4,0-0.8,0-1.1,0.1c0.4-0.5,0.4-1.8,0.4-3.7v-12h1.2V13.5z"/>
	<path class="st0" d="M38.9,9.9c1.7-0.9,2.6-2.3,2.6-4c0-1.6-0.7-2.9-2.2-3.8c1.9,0.4,3.3,2,3.3,3.9C42.6,8.2,41.4,9.6,38.9,9.9
		 M34.7,9.8V5.9c0-3,0.1-3.7,2.2-3.7c2.2,0,3.8,1.5,3.8,3.7c0,2.4-1.7,4-4.6,4C35.8,9.9,35.3,9.8,34.7,9.8 M38.1,10.6
		c3.9,5,6.9,7.5,8.5,7.7c-0.3,0-0.6,0.1-0.9,0.1c-2,0-4.8-2.6-8.9-7.8C37.2,10.6,37.6,10.6,38.1,10.6 M34.7,10.5l0.9,0.1
		C40.2,16,42.5,19,46.1,19c1.2,0,1.9-0.3,1.9-0.7c0-0.4-0.6-0.4-1.3-0.8c-1.2-0.8-3.7-3.1-7.3-7.2c2.9-0.4,4.6-2.2,4.6-4.5
		c0-2.8-2.3-4.7-6.1-4.7c-1.5,0-3.1,0.3-4.9,0.3c-2.1,0-3.4-0.1-4.1-0.1c-0.4,0-0.6,0.1-0.6,0.4c0,0.5,0.5,0.4,1.2,0.5
		c1.8,0.2,1.9,0.9,1.9,3.2v9.2c0,2.3-0.1,3-1.9,3.2c-0.8,0.1-1.3,0-1.3,0.5c0,0.3,0.2,0.5,0.6,0.5c0.6,0,2-0.2,4.2-0.2
		c2.1,0,3.4,0.2,3.9,0.2c0.4,0,0.5-0.2,0.5-0.5c0-0.7-0.7-0.4-1.5-0.7c-1.2-0.4-1.3-2-1.3-5.5V10.5z M33.3,13.5c0,2,0.1,3.5,0.7,4.6
		C33.7,18,33.3,18,32.9,18c-0.4,0-0.8,0-1.2,0.1c0.4-0.5,0.4-1.8,0.4-3.7V6.1c0-1.9,0-3.2-0.4-3.7c0.4,0,0.8,0,1.1,0
		c0.3,0,0.7,0,0.9,0c-0.3,0.9-0.5,1.8-0.5,2.5V13.5z"/>
	<path class="st0" d="M38.9,9.9c1.7-0.9,2.6-2.3,2.6-4c0-1.6-0.7-2.9-2.2-3.8c1.9,0.4,3.3,2,3.3,3.9C42.6,8.2,41.4,9.6,38.9,9.9z
		 M34.7,9.8V5.9c0-3,0.1-3.7,2.2-3.7c2.2,0,3.8,1.5,3.8,3.7c0,2.4-1.7,4-4.6,4C35.8,9.9,35.3,9.8,34.7,9.8z M38.1,10.6
		c3.9,5,6.9,7.5,8.5,7.7c-0.3,0-0.6,0.1-0.9,0.1c-2,0-4.8-2.6-8.9-7.8C37.2,10.6,37.6,10.6,38.1,10.6z M34.7,10.5l0.9,0.1
		C40.2,16,42.5,19,46.1,19c1.2,0,1.9-0.3,1.9-0.7c0-0.4-0.6-0.4-1.3-0.8c-1.2-0.8-3.7-3.1-7.3-7.2c2.9-0.4,4.6-2.2,4.6-4.5
		c0-2.8-2.3-4.7-6.1-4.7c-1.5,0-3.1,0.3-4.9,0.3c-2.1,0-3.4-0.1-4.1-0.1c-0.4,0-0.6,0.1-0.6,0.4c0,0.5,0.5,0.4,1.2,0.5
		c1.8,0.2,1.9,0.9,1.9,3.2v9.2c0,2.3-0.1,3-1.9,3.2c-0.8,0.1-1.3,0-1.3,0.5c0,0.3,0.2,0.5,0.6,0.5c0.6,0,2-0.2,4.2-0.2
		c2.1,0,3.4,0.2,3.9,0.2c0.4,0,0.5-0.2,0.5-0.5c0-0.7-0.7-0.4-1.5-0.7c-1.2-0.4-1.3-2-1.3-5.5V10.5z M33.3,13.5c0,2,0.1,3.5,0.7,4.6
		C33.7,18,33.3,18,32.9,18c-0.4,0-0.8,0-1.2,0.1c0.4-0.5,0.4-1.8,0.4-3.7V6.1c0-1.9,0-3.2-0.4-3.7c0.4,0,0.8,0,1.1,0
		c0.3,0,0.7,0,0.9,0c-0.3,0.9-0.5,1.8-0.5,2.5V13.5z"/>
	<path class="st0" d="M60.1,12.4V8.1c0-3.6,0.1-5.2,1.4-5.6c0.9-0.2,1.7,0,1.7-0.7c0-0.3-0.2-0.4-0.6-0.4c-0.6,0-2,0.2-4.1,0.2
		c-2.2,0-3.5-0.2-4.1-0.2c-0.4,0-0.6,0.1-0.6,0.4c0,0.5,0.5,0.4,1.2,0.5c1.8,0.2,1.9,0.9,1.9,3.2v9.2c0,2.3-0.1,3-1.9,3.2
		c-0.8,0.1-1.2,0-1.2,0.5c0,0.3,0.2,0.5,0.6,0.5c0.6,0,2-0.2,4.2-0.2c2.1,0,3.5,0.2,4.1,0.2c0.4,0,0.6-0.2,0.6-0.5
		c0-0.7-0.8-0.4-1.7-0.7C60.2,17.6,60.1,16,60.1,12.4 M58.7,13.5c0,1.9,0.1,3.4,0.6,4.6C59,18,58.7,18,58.3,18c-0.4,0-0.8,0-1.1,0.1
		c0.4-0.5,0.4-1.8,0.4-3.7V6.1c0-1.9,0-3.2-0.4-3.7c0.4,0,0.7,0,1.1,0c0.4,0,0.7,0,1.1,0c-0.6,1.2-0.6,2.7-0.6,4.7V13.5z"/>
	<path class="st0" d="M60.1,12.4V8.1c0-3.6,0.1-5.2,1.4-5.6c0.9-0.2,1.7,0,1.7-0.7c0-0.3-0.2-0.4-0.6-0.4c-0.6,0-2,0.2-4.1,0.2
		c-2.2,0-3.5-0.2-4.1-0.2c-0.4,0-0.6,0.1-0.6,0.4c0,0.5,0.5,0.4,1.2,0.5c1.8,0.2,1.9,0.9,1.9,3.2v9.2c0,2.3-0.1,3-1.9,3.2
		c-0.8,0.1-1.2,0-1.2,0.5c0,0.3,0.2,0.5,0.6,0.5c0.6,0,2-0.2,4.2-0.2c2.1,0,3.5,0.2,4.1,0.2c0.4,0,0.6-0.2,0.6-0.5
		c0-0.7-0.8-0.4-1.7-0.7C60.2,17.6,60.1,16,60.1,12.4z M58.7,13.5c0,1.9,0.1,3.4,0.6,4.6C59,18,58.7,18,58.3,18
		c-0.4,0-0.8,0-1.1,0.1c0.4-0.5,0.4-1.8,0.4-3.7V6.1c0-1.9,0-3.2-0.4-3.7c0.4,0,0.7,0,1.1,0c0.4,0,0.7,0,1.1,0
		c-0.6,1.2-0.6,2.7-0.6,4.7V13.5z"/>
	<path class="st0" d="M74.6,3.3c5.4,5.8,9.8,9.4,12.1,11.7c1.1,1.1,2.1,2.2,2.8,3.4c0.3,0.5,0.3,0.9,0.7,0.9c0.3,0,0.5-0.3,0.5-0.9
		V8c0-3.6,0.1-5.1,1.4-5.5c0.9-0.2,1.7,0,1.7-0.7c0-0.3-0.2-0.4-0.6-0.4c-0.6,0-1.6,0.1-3,0.1c-1.6,0-2.8-0.1-3.4-0.1
		c-0.5,0-0.7,0.1-0.7,0.4c0,0.7,0.9,0.4,1.9,0.7c1.5,0.4,1.6,1.9,1.6,5.5v5.5c-4.3-3.8-7.9-7.1-10.8-10.1c-1.2-1.3-1.7-2-2.2-2
		c-0.2,0-1.1,0.1-2.9,0.1c-1.1,0-1.9-0.1-2.4-0.1c-0.4,0-0.5,0.1-0.5,0.4c0,0.5,0.4,0.4,1.1,0.5c1.6,0.2,1.6,1,1.6,3.2v6.8
		c0,3.6-0.1,5.1-1.4,5.5c-0.9,0.2-1.7,0-1.7,0.7c0,0.3,0.2,0.5,0.6,0.5c0.5,0,1.5-0.2,2.9-0.2c1.7,0,2.8,0.2,3.4,0.2
		c0.5,0,0.7-0.2,0.7-0.5c0-0.7-0.9-0.4-2-0.7c-1.5-0.4-1.6-1.9-1.6-5.5V3.3z M89.7,15v2.4c-1.5-2.3-7.2-6.7-15-14.9
		c0.1,0,0.3,0,0.5,0c0.5,0,0.9-0.1,1.3-0.2C77.9,4.2,82.3,8.5,89.7,15"/>
	<path class="st0" d="M74.6,3.3c5.4,5.8,9.8,9.4,12.1,11.7c1.1,1.1,2.1,2.2,2.8,3.4c0.3,0.5,0.3,0.9,0.7,0.9c0.3,0,0.5-0.3,0.5-0.9
		V8c0-3.6,0.1-5.1,1.4-5.5c0.9-0.2,1.7,0,1.7-0.7c0-0.3-0.2-0.4-0.6-0.4c-0.6,0-1.6,0.1-3,0.1c-1.6,0-2.8-0.1-3.4-0.1
		c-0.5,0-0.7,0.1-0.7,0.4c0,0.7,0.9,0.4,1.9,0.7c1.5,0.4,1.6,1.9,1.6,5.5v5.5c-4.3-3.8-7.9-7.1-10.8-10.1c-1.2-1.3-1.7-2-2.2-2
		c-0.2,0-1.1,0.1-2.9,0.1c-1.1,0-1.9-0.1-2.4-0.1c-0.4,0-0.5,0.1-0.5,0.4c0,0.5,0.4,0.4,1.1,0.5c1.6,0.2,1.6,1,1.6,3.2v6.8
		c0,3.6-0.1,5.1-1.4,5.5c-0.9,0.2-1.7,0-1.7,0.7c0,0.3,0.2,0.5,0.6,0.5c0.5,0,1.5-0.2,2.9-0.2c1.7,0,2.8,0.2,3.4,0.2
		c0.5,0,0.7-0.2,0.7-0.5c0-0.7-0.9-0.4-2-0.7c-1.5-0.4-1.6-1.9-1.6-5.5V3.3z M89.7,15v2.4c-1.5-2.3-7.2-6.7-15-14.9
		c0.1,0,0.3,0,0.5,0c0.5,0,0.9-0.1,1.3-0.2C77.9,4.2,82.3,8.5,89.7,15z"/>
	<path class="st0" d="M110.5,19.5c2.5,0,4.3-0.5,5.3-0.5c0.4,0,0.7,0.1,1,0.1c0.3,0,0.4-0.1,0.4-0.4v-0.4c0-2.5,0.8-4,0.8-4.6
		c0-0.2-0.2-0.4-0.6-0.4c-0.5,0-0.5,0.9-1.1,2c-1,2-2.5,3-5,3c-4.4,0-7.6-3.4-7.6-8.5c0-4.8,3-7.9,7-7.9c3,0,4.8,1.1,5.8,3.5
		c0.3,0.7,0.3,1.2,0.8,1.2c0.3,0,0.5-0.2,0.5-0.5c0-0.2-0.2-1-0.2-2.2c0-1.6,0.4-2.4,0.4-2.5c0-0.2-0.2-0.3-0.5-0.3
		c-0.4,0-0.4,0.8-1.5,0.8c-1.2,0-2.9-1-5.4-1c-2.5,0-4.6,0.6-6.4,1.8c-2.7,1.8-4.2,4.5-4.2,7.5c0,2.7,1.2,5.1,3.4,6.9
		C105.1,18.7,107.6,19.5,110.5,19.5 M107.5,18.4c-3.8-0.7-6.7-4-6.7-8.1c0-4.3,2.8-7.6,6.8-8.1c-3.6,1.6-5.5,4.5-5.5,8.3
		C102,13.8,104,16.7,107.5,18.4"/>
	<path class="st0" d="M110.5,19.5c2.5,0,4.3-0.5,5.3-0.5c0.4,0,0.7,0.1,1,0.1c0.3,0,0.4-0.1,0.4-0.4v-0.4c0-2.5,0.8-4,0.8-4.6
		c0-0.2-0.2-0.4-0.6-0.4c-0.5,0-0.5,0.9-1.1,2c-1,2-2.5,3-5,3c-4.4,0-7.6-3.4-7.6-8.5c0-4.8,3-7.9,7-7.9c3,0,4.8,1.1,5.8,3.5
		c0.3,0.7,0.3,1.2,0.8,1.2c0.3,0,0.5-0.2,0.5-0.5c0-0.2-0.2-1-0.2-2.2c0-1.6,0.4-2.4,0.4-2.5c0-0.2-0.2-0.3-0.5-0.3
		c-0.4,0-0.4,0.8-1.5,0.8c-1.2,0-2.9-1-5.4-1c-2.5,0-4.6,0.6-6.4,1.8c-2.7,1.8-4.2,4.5-4.2,7.5c0,2.7,1.2,5.1,3.4,6.9
		C105.1,18.7,107.6,19.5,110.5,19.5z M107.5,18.4c-3.8-0.7-6.7-4-6.7-8.1c0-4.3,2.8-7.6,6.8-8.1c-3.6,1.6-5.5,4.5-5.5,8.3
		C102,13.8,104,16.7,107.5,18.4z"/>
	<path class="st0" d="M131.9,10.5h11.2v4.3c0,2.3-0.1,3-1.9,3.2c-0.8,0.1-1.2,0-1.2,0.5c0,0.3,0.2,0.5,0.6,0.5c0.6,0,2-0.2,4.2-0.2
		c2.2,0,3.5,0.2,4.1,0.2c0.4,0,0.6-0.2,0.6-0.5c0-0.7-0.8-0.4-1.7-0.7c-1.3-0.4-1.4-1.9-1.4-5.5V8.1c0-3.6,0.1-5.2,1.4-5.6
		c0.9-0.2,1.7,0,1.7-0.7c0-0.3-0.2-0.4-0.6-0.4c-0.6,0-2,0.2-4.1,0.2c-2.2,0-3.5-0.2-4.1-0.2c-0.4,0-0.6,0.1-0.6,0.4
		c0,0.5,0.5,0.4,1.2,0.5c1.8,0.2,1.9,0.9,1.9,3.2v3.7h-11.2V8.1c0-3.6,0.1-5.2,1.4-5.6c0.9-0.2,1.7,0,1.7-0.7c0-0.3-0.2-0.4-0.6-0.4
		c-0.6,0-2,0.2-4.1,0.2c-2.2,0-3.5-0.2-4.1-0.2c-0.4,0-0.6,0.1-0.6,0.4c0,0.5,0.4,0.4,1.2,0.5c1.8,0.2,1.9,0.9,1.9,3.2v9.2
		c0,2.3-0.1,3-1.9,3.2c-0.8,0.1-1.2,0-1.2,0.5c0,0.3,0.2,0.5,0.6,0.5c0.6,0,2-0.2,4.2-0.2c2.1,0,3.5,0.2,4.1,0.2
		c0.4,0,0.6-0.2,0.6-0.5c0-0.7-0.8-0.4-1.7-0.7c-1.3-0.4-1.4-1.9-1.4-5.5V10.5z M144.9,13.5c0,1.9,0.1,3.4,0.7,4.6
		c-0.3-0.1-0.7-0.1-1.1-0.1c-0.4,0-0.8,0-1.2,0.1c0.3-0.4,0.3-1.4,0.3-2.9v-0.8V6.1V5.3c0-1.5,0-2.5-0.3-2.9c0.4,0,0.7,0,1.1,0
		c0.4,0,0.7,0,1.1,0c-0.6,1.2-0.7,2.7-0.7,4.7V13.5z M130.5,13.5c0,1.9,0.1,3.4,0.6,4.6c-0.3-0.1-0.7-0.1-1.1-0.1
		c-0.4,0-0.8,0-1.2,0.1c0.4-0.5,0.4-1.8,0.4-3.7V6.1c0-1.9,0-3.2-0.4-3.7c0.4,0,0.7,0,1.1,0c0.4,0,0.7,0,1.1,0
		c-0.6,1.2-0.6,2.7-0.6,4.7V13.5z"/>
	<path class="st0" d="M131.9,10.5h11.2v4.3c0,2.3-0.1,3-1.9,3.2c-0.8,0.1-1.2,0-1.2,0.5c0,0.3,0.2,0.5,0.6,0.5c0.6,0,2-0.2,4.2-0.2
		c2.2,0,3.5,0.2,4.1,0.2c0.4,0,0.6-0.2,0.6-0.5c0-0.7-0.8-0.4-1.7-0.7c-1.3-0.4-1.4-1.9-1.4-5.5V8.1c0-3.6,0.1-5.2,1.4-5.6
		c0.9-0.2,1.7,0,1.7-0.7c0-0.3-0.2-0.4-0.6-0.4c-0.6,0-2,0.2-4.1,0.2c-2.2,0-3.5-0.2-4.1-0.2c-0.4,0-0.6,0.1-0.6,0.4
		c0,0.5,0.5,0.4,1.2,0.5c1.8,0.2,1.9,0.9,1.9,3.2v3.7h-11.2V8.1c0-3.6,0.1-5.2,1.4-5.6c0.9-0.2,1.7,0,1.7-0.7c0-0.3-0.2-0.4-0.6-0.4
		c-0.6,0-2,0.2-4.1,0.2c-2.2,0-3.5-0.2-4.1-0.2c-0.4,0-0.6,0.1-0.6,0.4c0,0.5,0.4,0.4,1.2,0.5c1.8,0.2,1.9,0.9,1.9,3.2v9.2
		c0,2.3-0.1,3-1.9,3.2c-0.8,0.1-1.2,0-1.2,0.5c0,0.3,0.2,0.5,0.6,0.5c0.6,0,2-0.2,4.2-0.2c2.1,0,3.5,0.2,4.1,0.2
		c0.4,0,0.6-0.2,0.6-0.5c0-0.7-0.8-0.4-1.7-0.7c-1.3-0.4-1.4-1.9-1.4-5.5V10.5z M144.9,13.5c0,1.9,0.1,3.4,0.7,4.6
		c-0.3-0.1-0.7-0.1-1.1-0.1c-0.4,0-0.8,0-1.2,0.1c0.3-0.4,0.3-1.4,0.3-2.9v-0.8V6.1V5.3c0-1.5,0-2.5-0.3-2.9c0.4,0,0.7,0,1.1,0
		c0.4,0,0.7,0,1.1,0c-0.6,1.2-0.7,2.7-0.7,4.7V13.5z M130.5,13.5c0,1.9,0.1,3.4,0.6,4.6c-0.3-0.1-0.7-0.1-1.1-0.1
		c-0.4,0-0.8,0-1.2,0.1c0.4-0.5,0.4-1.8,0.4-3.7V6.1c0-1.9,0-3.2-0.4-3.7c0.4,0,0.7,0,1.1,0c0.4,0,0.7,0,1.1,0
		c-0.6,1.2-0.6,2.7-0.6,4.7V13.5z"/>
	<path class="st0" d="M168.8,2.2l2.5-0.1c-0.1,0.6-0.2,1.3-0.2,1.9C170.5,3.1,169.8,2.5,168.8,2.2 M169,18.1
		c1.5-0.5,2.6-1.2,3.2-2.1c-0.2,0.6-0.3,1.3-0.4,2.1H169z M159.7,18.9h9.3c1.9,0,2.9,0.2,3,0.2c0.8,0,0.8-0.5,0.9-1.2
		c0.2-2,1.1-3.4,1.1-4.1c0-0.2-0.2-0.4-0.5-0.4c-0.6,0-0.5,1-1.7,2.2c-1.3,1.4-3.5,2.2-6.1,2.2c-2.4,0-2.5-0.8-2.5-3.6v-0.8v-3.1
		c1.1,0,2.1,0,2.9,0c2,0,3.2,0.1,3.7,0.5c0.5,0.5,0.4,1.2,0.5,1.8c0,0.2,0.2,0.4,0.5,0.4c0.3,0,0.5-0.2,0.5-0.4
		c0-0.2-0.1-0.6-0.1-1.2c0-1.8,0.3-2.9,0.3-3.4c0-0.3-0.1-0.4-0.4-0.4c-0.8,0-0.5,1-1.2,1.4c-0.4,0.2-1.6,0.3-3.6,0.3
		c-0.9,0-2,0-3.2,0V5.6c0-2.4,0.3-3.2,2.1-3.2h1.1c2.6,0,3.8,0.8,4.5,2.7c0.3,0.8,0.1,1.2,0.6,1.2c0.3,0,0.5-0.2,0.5-0.4
		c0-0.4-0.1-0.6-0.1-0.7c0-2.1,0.4-3.3,0.4-3.6c0-0.1-0.1-0.1-0.2-0.2l-0.4-0.1h0c-0.3,0-1.6,0.1-4,0.1h-7.9c-1,0-1.8,0-2.4,0
		c-0.4,0-0.6,0.1-0.6,0.5c0,0.5,0.4,0.4,1.2,0.5c1.8,0.2,1.9,0.9,1.9,3.2v9.2c0,2.3-0.1,3-1.9,3.2c-0.8,0.1-1.2,0-1.2,0.5
		c0,0.3,0.2,0.5,0.6,0.5C157.8,19,158.7,18.9,159.7,18.9 M161.7,13.5c0,1.9,0.1,3.4,0.7,4.6c-0.3-0.1-0.7-0.1-1.1-0.1
		c-0.4,0-0.8,0-1.2,0.1c0.4-0.5,0.4-1.8,0.4-3.7V6.1c0-1.9,0-3.2-0.4-3.7c0.4,0,0.7,0,1.1,0c0.4,0,0.7,0,1.1,0
		c-0.6,1.2-0.7,2.7-0.7,4.7V13.5z"/>
	<path class="st0" d="M168.8,2.2l2.5-0.1c-0.1,0.6-0.2,1.3-0.2,1.9C170.5,3.1,169.8,2.5,168.8,2.2z M169,18.1
		c1.5-0.5,2.6-1.2,3.2-2.1c-0.2,0.6-0.3,1.3-0.4,2.1H169z M159.7,18.9h9.3c1.9,0,2.9,0.2,3,0.2c0.8,0,0.8-0.5,0.9-1.2
		c0.2-2,1.1-3.4,1.1-4.1c0-0.2-0.2-0.4-0.5-0.4c-0.6,0-0.5,1-1.7,2.2c-1.3,1.4-3.5,2.2-6.1,2.2c-2.4,0-2.5-0.8-2.5-3.6v-0.8v-3.1
		c1.1,0,2.1,0,2.9,0c2,0,3.2,0.1,3.7,0.5c0.5,0.5,0.4,1.2,0.5,1.8c0,0.2,0.2,0.4,0.5,0.4c0.3,0,0.5-0.2,0.5-0.4
		c0-0.2-0.1-0.6-0.1-1.2c0-1.8,0.3-2.9,0.3-3.4c0-0.3-0.1-0.4-0.4-0.4c-0.8,0-0.5,1-1.2,1.4c-0.4,0.2-1.6,0.3-3.6,0.3
		c-0.9,0-2,0-3.2,0V5.6c0-2.4,0.3-3.2,2.1-3.2h1.1c2.6,0,3.8,0.8,4.5,2.7c0.3,0.8,0.1,1.2,0.6,1.2c0.3,0,0.5-0.2,0.5-0.4
		c0-0.4-0.1-0.6-0.1-0.7c0-2.1,0.4-3.3,0.4-3.6c0-0.1-0.1-0.1-0.2-0.2l-0.4-0.1h0c-0.3,0-1.6,0.1-4,0.1h-7.9c-1,0-1.8,0-2.4,0
		c-0.4,0-0.6,0.1-0.6,0.5c0,0.5,0.4,0.4,1.2,0.5c1.8,0.2,1.9,0.9,1.9,3.2v9.2c0,2.3-0.1,3-1.9,3.2c-0.8,0.1-1.2,0-1.2,0.5
		c0,0.3,0.2,0.5,0.6,0.5C157.8,19,158.7,18.9,159.7,18.9z M161.7,13.5c0,1.9,0.1,3.4,0.7,4.6c-0.3-0.1-0.7-0.1-1.1-0.1
		c-0.4,0-0.8,0-1.2,0.1c0.4-0.5,0.4-1.8,0.4-3.7V6.1c0-1.9,0-3.2-0.4-3.7c0.4,0,0.7,0,1.1,0c0.4,0,0.7,0,1.1,0
		c-0.6,1.2-0.7,2.7-0.7,4.7V13.5z"/>
	<path class="st0" d="M191.3,9.9c1.7-0.9,2.6-2.3,2.6-4c0-1.6-0.7-2.9-2.2-3.8c1.9,0.4,3.2,2,3.2,3.9C195,8.2,193.7,9.6,191.3,9.9
		 M187.1,9.8V5.9c0-3,0.1-3.7,2.2-3.7c2.3,0,3.8,1.5,3.8,3.7c0,2.4-1.7,4-4.6,4C188.2,9.9,187.7,9.8,187.1,9.8 M190.4,10.6
		c3.9,5,6.9,7.5,8.5,7.7c-0.3,0-0.6,0.1-0.9,0.1c-2,0-4.8-2.6-8.9-7.8C189.5,10.6,189.9,10.6,190.4,10.6 M187.1,10.5l0.9,0.1
		c4.5,5.4,6.9,8.4,10.5,8.4c1.2,0,1.9-0.3,1.9-0.7c0-0.4-0.6-0.4-1.3-0.8c-1.2-0.8-3.7-3.1-7.3-7.2c2.9-0.4,4.6-2.2,4.6-4.5
		c0-2.8-2.3-4.7-6.1-4.7c-1.5,0-3.1,0.3-4.9,0.3c-2.1,0-3.4-0.1-4.1-0.1c-0.4,0-0.6,0.1-0.6,0.4c0,0.5,0.5,0.4,1.2,0.5
		c1.8,0.2,1.9,0.9,1.9,3.2v9.2c0,2.3-0.1,3-1.9,3.2c-0.8,0.1-1.3,0-1.3,0.5c0,0.3,0.2,0.5,0.6,0.5c0.6,0,2-0.2,4.2-0.2
		c2.1,0,3.4,0.2,3.9,0.2c0.4,0,0.5-0.2,0.5-0.5c0-0.7-0.7-0.4-1.5-0.7c-1.3-0.4-1.3-2-1.3-5.5V10.5z M185.7,13.5
		c0,2,0.1,3.5,0.7,4.6c-0.3-0.1-0.7-0.1-1.1-0.1c-0.4,0-0.8,0-1.2,0.1c0.4-0.5,0.4-1.8,0.4-3.7V6.1c0-1.9,0-3.2-0.4-3.7
		c0.4,0,0.8,0,1.1,0c0.3,0,0.7,0,0.9,0c-0.3,0.9-0.5,1.8-0.5,2.5V13.5z"/>
	<path class="st0" d="M191.3,9.9c1.7-0.9,2.6-2.3,2.6-4c0-1.6-0.7-2.9-2.2-3.8c1.9,0.4,3.2,2,3.2,3.9C195,8.2,193.7,9.6,191.3,9.9z
		 M187.1,9.8V5.9c0-3,0.1-3.7,2.2-3.7c2.3,0,3.8,1.5,3.8,3.7c0,2.4-1.7,4-4.6,4C188.2,9.9,187.7,9.8,187.1,9.8z M190.4,10.6
		c3.9,5,6.9,7.5,8.5,7.7c-0.3,0-0.6,0.1-0.9,0.1c-2,0-4.8-2.6-8.9-7.8C189.5,10.6,189.9,10.6,190.4,10.6z M187.1,10.5l0.9,0.1
		c4.5,5.4,6.9,8.4,10.5,8.4c1.2,0,1.9-0.3,1.9-0.7c0-0.4-0.6-0.4-1.3-0.8c-1.2-0.8-3.7-3.1-7.3-7.2c2.9-0.4,4.6-2.2,4.6-4.5
		c0-2.8-2.3-4.7-6.1-4.7c-1.5,0-3.1,0.3-4.9,0.3c-2.1,0-3.4-0.1-4.1-0.1c-0.4,0-0.6,0.1-0.6,0.4c0,0.5,0.5,0.4,1.2,0.5
		c1.8,0.2,1.9,0.9,1.9,3.2v9.2c0,2.3-0.1,3-1.9,3.2c-0.8,0.1-1.3,0-1.3,0.5c0,0.3,0.2,0.5,0.6,0.5c0.6,0,2-0.2,4.2-0.2
		c2.1,0,3.4,0.2,3.9,0.2c0.4,0,0.5-0.2,0.5-0.5c0-0.7-0.7-0.4-1.5-0.7c-1.3-0.4-1.3-2-1.3-5.5V10.5z M185.7,13.5
		c0,2,0.1,3.5,0.7,4.6c-0.3-0.1-0.7-0.1-1.1-0.1c-0.4,0-0.8,0-1.2,0.1c0.4-0.5,0.4-1.8,0.4-3.7V6.1c0-1.9,0-3.2-0.4-3.7
		c0.4,0,0.8,0,1.1,0c0.3,0,0.7,0,0.9,0c-0.3,0.9-0.5,1.8-0.5,2.5V13.5z"/>
	<path class="st0" d="M221.6,17.3c1.8-2,2.6-4.1,2.6-6.5c0-3.9-2.1-7.4-5.4-8.9c3.8,0.5,6.6,4.2,6.6,8.7
		C225.4,13.6,224,16,221.6,17.3 M213.5,18.4c-4.3-1.1-6.8-4.2-6.8-8.2c0-3.4,2-6.5,4.8-7.7C209.2,4.4,208,7,208,10
		C208,13.8,209.8,16.6,213.5,18.4 M216.4,19.5c3,0,5.6-0.9,7.5-2.6c1.9-1.7,3-4.1,3-6.6c0-2.7-1-4.9-3-6.6c-2-1.7-4.6-2.7-7.6-2.7
		c-3,0-5.6,0.9-7.5,2.7c-1.9,1.7-3,4.1-3,6.6c0,2.7,1,4.9,2.9,6.6C210.8,18.6,213.3,19.5,216.4,19.5 M216.8,18.4
		c-2.2,0-4.2-1.2-5.7-3.5c-1.1-1.6-1.7-3.8-1.7-6c0-4.2,2.6-7,6.4-7c2.3,0,4.1,1,5.6,3.1c1.3,1.8,2,3.7,2,5.8
		C223.3,15.3,220.4,18.4,216.8,18.4"/>
	<path class="st0" d="M221.6,17.3c1.8-2,2.6-4.1,2.6-6.5c0-3.9-2.1-7.4-5.4-8.9c3.8,0.5,6.6,4.2,6.6,8.7
		C225.4,13.6,224,16,221.6,17.3z M213.5,18.4c-4.3-1.1-6.8-4.2-6.8-8.2c0-3.4,2-6.5,4.8-7.7C209.2,4.4,208,7,208,10
		C208,13.8,209.8,16.6,213.5,18.4z M216.4,19.5c3,0,5.6-0.9,7.5-2.6c1.9-1.7,3-4.1,3-6.6c0-2.7-1-4.9-3-6.6c-2-1.7-4.6-2.7-7.6-2.7
		c-3,0-5.6,0.9-7.5,2.7c-1.9,1.7-3,4.1-3,6.6c0,2.7,1,4.9,2.9,6.6C210.8,18.6,213.3,19.5,216.4,19.5z M216.8,18.4
		c-2.2,0-4.2-1.2-5.7-3.5c-1.1-1.6-1.7-3.8-1.7-6c0-4.2,2.6-7,6.4-7c2.3,0,4.1,1,5.6,3.1c1.3,1.8,2,3.7,2,5.8
		C223.3,15.3,220.4,18.4,216.8,18.4z"/>
</g>
</svg>
