<svg id="Capa_1" enable-background="new 0 0 512 512" viewBox="0 0 512 512" xmlns="http://www.w3.org/2000/svg"><g><path d="m417.652 148.974-124.333-109.898c-10.308-9.111-23.561-14.128-37.319-14.128s-27.012 5.018-37.319 14.129l-124.333 109.897c-3.197 2.826-3.498 7.709-.672 10.906 1.527 1.728 3.654 2.61 5.792 2.61 1.818 0 3.644-.638 5.114-1.937l124.333-109.898c7.481-6.613 17.1-10.255 27.085-10.255s19.605 3.642 27.086 10.255l124.333 109.897c1.47 1.299 3.295 1.937 5.114 1.937 2.138 0 4.266-.882 5.792-2.61 2.825-3.197 2.524-8.079-.673-10.905z" fill="#7ca1b1"/><circle cx="256" cy="60.294" fill="#a8d3d8" r="19.894"/><path d="m491.084 487.052h-470.168c-11.552 0-20.916-9.364-20.916-20.915v-225.78l253.819-21.588 258.181 21.588v225.78c0 11.551-9.364 20.915-20.916 20.915z" fill="#ffe177"/><path d="m471.752 231.531v234.606c0 11.551-9.364 20.916-20.916 20.916h40.248c11.552 0 20.916-9.364 20.916-20.916v-225.78z" fill="#ffd15b"/><path d="m491.084 147.037h-470.168c-11.552 0-20.916 9.364-20.916 20.915v72.404h471.752l40.248-72.404c0-11.551-9.364-20.915-20.916-20.915z" fill="#eef5f6"/><path d="m491.084 147.037h-40.248c11.552 0 20.916 9.364 20.916 20.916v72.404h40.248v-72.404c0-11.552-9.364-20.916-20.916-20.916z" fill="#deecf1"/><path d="m475.748 178.85v29.69c0 2.215-1.793 4.008-3.997 4.008l-41.588-.004-25.708-8.665-23.978 8.665h-53.734l-22.648-8.472-27.038 8.472h-53.734l-28.29-7.891-21.406 7.891h-53.724l-21.749-6.345-27.947 6.345-38.395.004c-2.205 0-3.997-1.792-3.997-4.008v-29.69c0-2.205 1.793-3.997 3.997-3.997l50.026-.003 19.99 6.792 29.695-6.792h53.734l21.378 10.079 28.308-10.079h53.734l21.798 7.758 27.897-7.758 53.724-.001 20.672 9.499 29.024-9.499 29.958.003c2.205.001 3.998 1.793 3.998 3.998z" fill="#ffd15b"/><path d="m484.185 178.85v29.69c0 2.215-1.793 4.008-3.997 4.008h-8.437v-37.694h8.437c2.205-.001 3.997 1.791 3.997 3.996z" fill="#ffc344"/><g fill="#7ca1b1"><path d="m441.793 174.849-11.631 37.695h-49.685l11.62-37.695z"/><path d="m338.373 174.849-11.631 37.695h-49.685l11.62-37.695z"/><path d="m234.943 174.849-11.62 37.695h-49.696l11.63-37.695z"/><path d="m131.523 174.849-11.62 37.695h-49.696l11.631-37.695z"/></g><g fill="#cb97e7"><path d="m300.88 311.393 18.797-17.279c3.142-2.887 3.348-7.775.46-10.917-2.887-3.141-7.776-3.347-10.916-.459l-13.455 12.367v-7.299c0-4.267-3.459-7.726-7.726-7.726s-7.726 3.459-7.726 7.726v49.095c0 4.267 3.459 7.726 7.726 7.726s7.726-3.459 7.726-7.726v-8.971l15.062 14.531c1.499 1.447 3.433 2.166 5.363 2.166 2.024 0 4.045-.79 5.561-2.362 2.963-3.071 2.875-7.962-.196-10.925z"/><path d="m133.715 338.637c.109-.32.196-.647.263-.978l9.604-48.254c.833-4.185-1.885-8.253-6.07-9.086-4.187-.833-8.253 1.885-9.086 6.07l-4.462 22.419-7.171-23.277c-1.256-4.078-5.581-6.365-9.658-5.109-2.726.84-4.644 3.052-5.247 5.644l-7.041 22.748-4.452-22.508c-.828-4.186-4.892-6.906-9.079-6.08-4.186.828-6.908 4.893-6.08 9.078l9.565 48.358c.073.369.173.732.299 1.087 1.251 3.522 4.591 5.877 8.324 5.877h.06c3.758-.026 7.095-2.433 8.304-5.991.023-.067.045-.134.065-.202l7.551-24.397 7.517 24.401c.032.105.066.208.103.311 1.251 3.522 4.591 5.877 8.324 5.877h.06c3.761-.022 7.098-2.43 8.307-5.988z"/><path d="m183.203 281.196c-17.796 0-32.274 14.478-32.274 32.274s14.478 32.274 32.274 32.274 32.274-14.478 32.274-32.274-14.478-32.274-32.274-32.274zm0 49.095c-9.275 0-16.821-7.546-16.821-16.821s7.546-16.821 16.821-16.821 16.821 7.546 16.821 16.821c.001 9.275-7.546 16.821-16.821 16.821z"/><path d="m269.272 300.566c0-11.296-9.514-20.486-21.208-20.486h-13.046c-.003 0-.005 0-.008 0s-.005 0-.008 0c-4.267 0-7.726 3.459-7.726 7.726v49.095c0 4.267 3.459 7.726 7.726 7.726s7.726-3.459 7.726-7.726v-9.686l13.018 14.79c1.527 1.735 3.66 2.622 5.803 2.622 1.813 0 3.634-.635 5.102-1.927 3.203-2.819 3.514-7.701.695-10.904l-10.923-12.41c7.548-3.139 12.849-10.39 12.849-18.82zm-21.208-5.033c3.066 0 5.755 2.352 5.755 5.033s-2.689 5.033-5.755 5.033c-1.271 0-3.244.007-5.272.016-.009-1.951-.016-3.835-.016-5.049 0-1.046-.004-2.98-.01-5.033z"/><path d="m428.711 279.159c-.026 0-.051 0-.076 0-4.268.041-7.693 3.534-7.652 7.8l.258 26.608-21.392-30.978c-1.922-2.783-5.426-3.99-8.658-2.986-3.227 1.007-5.427 3.995-5.427 7.376v50.844c0 4.267 3.459 7.726 7.726 7.726s7.726-3.459 7.726-7.726v-26.059l20.297 29.391c2.216 3.201 5.936 4.555 9.474 3.451 3.6-1.125 5.925-4.461 5.925-8.574l-.476-49.222c-.042-4.241-3.492-7.651-7.725-7.651z"/><path d="m362.042 345.55c4.268 0 7.726-3.459 7.726-7.726v-50.939c0-4.267-3.459-7.726-7.726-7.726-4.268 0-7.726 3.459-7.726 7.726v50.939c0 4.267 3.459 7.726 7.726 7.726z"/><path d="m259.93 391.72h-14.539c-4.267 0-7.726 3.459-7.726 7.726s3.459 7.726 7.726 7.726h5.595c-1.735 4.974-5.462 8.847-12.033 8.847-9.139 0-16.573-7.435-16.573-16.573 0-9.139 7.435-16.573 16.573-16.573 3.322 0 6.525.977 9.261 2.825 3.536 2.39 8.338 1.46 10.727-2.076s1.46-8.339-2.076-10.727c-5.301-3.581-11.494-5.474-17.911-5.474-17.659 0-32.026 14.367-32.026 32.026s14.367 32.026 32.026 32.026c16.9 0 28.703-13.169 28.703-32.026-.001-4.267-3.46-7.727-7.727-7.727z"/><path d="m417.154 392.58c-5.675-2.093-10.979-4.367-12.903-5.206-.479-.477-.52-1.072-.456-1.519.165-1.15 1.152-2.079 2.707-2.548 5.958-1.795 11.638 2.62 11.856 2.792 3.267 2.698 8.103 2.264 10.834-.985 2.745-3.267 2.324-8.14-.943-10.886-4.427-3.721-14.931-9.113-26.204-5.716-7.332 2.208-12.522 8.013-13.546 15.147-.967 6.734 1.954 13.213 7.622 16.909.342.222.7.418 1.072.584.284.126 7.025 3.127 14.613 5.926 2.799 1.032 5.666 2.829 5.318 4.777-.3 1.68-2.689 4.164-6.864 4.164-4.372 0-8.563-1.744-11.21-4.665-2.867-3.163-7.754-3.4-10.913-.537-3.162 2.866-3.402 7.752-.537 10.913 5.611 6.191 13.87 9.742 22.661 9.742 11.043 0 20.328-7.108 22.076-16.901 1.326-7.434-1.965-17.115-15.183-21.991z"/><path d="m485.756 411.078s-2.986 13.727-14.005 20.3c-.721.062-1.452.093-2.194.093-8.787 0-17.05-3.554-22.654-9.735-2.864-3.163-2.627-8.056.536-10.92s8.046-2.627 10.909.536c2.648 2.926 6.841 4.667 11.208 4.667.793 0 1.525-.093 2.194-.247 5.508 4.007 9.041-2.658 9.278-4.018.319-1.803-5.511-6.478-9.278-4.43-.216-.082-.422-.165-.639-.247-7.593-2.792-14.33-5.8-14.618-5.924-.371-.165-.732-.361-1.071-.587-5.666-3.688-8.592-10.168-7.624-16.905 1.03-7.139 6.212-12.939 13.547-15.144 3.606-1.092 7.129-1.277 10.405-.906l8.119 8.756-8.119 6.892c-1.793-.443-3.853-.577-5.944.052-1.555.464-2.544 1.391-2.709 2.545-.062.453-.021 1.04.453 1.525 1.381.597 4.471 1.926 8.2 3.4z"/><path d="m41.347 367.421h-13.532c-3.808-.081-7.884 3.375-7.726 7.726v48.599c0 4.267 3.459 7.726 7.726 7.726s7.726-3.459 7.726-7.726v-13.424c2.218-.011 4.418-.019 5.806-.019 11.971 0 21.71-9.618 21.71-21.441s-9.739-21.441-21.71-21.441zm0 27.429c-1.378 0-3.551.008-5.753.018-.011-2.298-.019-4.581-.019-6.007 0-1.222-.005-3.572-.012-5.988h5.784c3.392 0 6.257 2.742 6.257 5.988s-2.865 5.989-6.257 5.989z"/><path d="m161.55 370.586c-17.659 0-32.026 14.367-32.026 32.026s14.367 32.026 32.026 32.026 32.026-14.367 32.026-32.026-14.367-32.026-32.026-32.026zm0 48.599c-9.139 0-16.573-7.435-16.573-16.573 0-9.139 7.435-16.573 16.573-16.573s16.573 7.435 16.573 16.573-7.434 16.573-16.573 16.573z"/><path d="m118.558 387.777c0-11.225-9.453-20.357-21.071-20.357h-12.915c-.003 0-.005 0-.008 0s-.005 0-.008 0c-4.267 0-7.726 3.459-7.726 7.726v48.599c0 4.267 3.459 7.726 7.726 7.726s7.726-3.459 7.726-7.726v-9.381l12.749 14.485c1.527 1.735 3.659 2.622 5.803 2.622 1.813 0 3.634-.634 5.102-1.927 3.203-2.819 3.515-7.701.695-10.904l-10.743-12.207c7.447-3.14 12.67-10.316 12.67-18.656zm-21.072-4.904c2.993 0 5.619 2.292 5.619 4.904s-2.626 4.904-5.619 4.904c-1.242 0-3.161.007-5.14.016-.009-1.903-.016-3.734-.016-4.92 0-1.022-.004-2.901-.009-4.904z"/><path d="m323.581 387.777c0-11.225-9.453-20.357-21.071-20.357h-12.914c-.003 0-.005 0-.008 0s-.005 0-.008 0c-4.268 0-7.726 3.459-7.726 7.726v48.599c0 4.267 3.459 7.726 7.726 7.726s7.726-3.459 7.726-7.726v-9.381l12.749 14.485c1.527 1.735 3.66 2.622 5.803 2.622 1.813 0 3.634-.635 5.102-1.927 3.203-2.819 3.514-7.701.695-10.904l-10.744-12.206c7.448-3.141 12.67-10.317 12.67-18.657zm-21.071-4.904c2.993 0 5.619 2.292 5.619 4.904s-2.626 4.904-5.619 4.904c-1.242 0-3.161.007-5.141.016-.008-1.903-.015-3.734-.015-4.92 0-1.022-.004-2.901-.009-4.904z"/><path d="m365.445 384.199c4.268 0 7.726-3.459 7.726-7.726s-3.459-7.726-7.726-7.726h-20.291c-4.268 0-7.726 3.459-7.726 7.726v48.155c0 4.267 3.459 7.726 7.726 7.726h20.291c4.268 0 7.726-3.459 7.726-7.726s-3.459-7.726-7.726-7.726h-12.565v-8.625h11.068c4.268 0 7.726-3.459 7.726-7.726s-3.459-7.726-7.726-7.726h-11.068v-8.625h12.565z"/></g><g fill="#bd80e1"><path d="m477.664 386.102c-.134-.113-2.586-2.009-5.913-2.843v-15.649c6.964.783 12.795 4.09 15.803 6.614 3.266 2.75 3.688 7.623.937 10.889-2.73 3.255-7.561 3.688-10.827.989z"/><path d="m491.633 414.576c-1.628 9.128-9.818 15.927-19.883 16.802v-15.607c2.823-.67 4.44-2.555 4.677-3.915.319-1.803-2.102-3.472-4.677-4.533v-16.545c1.494.587 3.08 1.205 4.708 1.803 13.218 4.873 16.504 14.557 15.175 21.995z"/></g></g><g/><g/><g/><g/><g/><g/><g/><g/><g/><g/><g/><g/><g/><g/><g/></svg>